<?xml version="1.0" standalone="no"?>
<svg viewBox="0 0 200 200" xmlns="http://www.w3.org/2000/svg">
  <path fill="#FF0066" d="M46.1,-74.5C57,-64.8,61.2,-47.3,65.6,-31.7C70,-16.1,74.7,-2.3,75.8,13C76.8,28.3,74.1,45.1,64.5,55.5C54.9,65.9,38.3,69.9,21.7,75.4C5.2,80.8,-11.3,87.8,-26.7,85.7C-42.1,83.5,-56.4,72.4,-66.9,58.8C-77.4,45.2,-84.1,29.1,-82.1,14.4C-80.2,-0.3,-69.5,-13.6,-61.3,-26.5C-53,-39.4,-47.2,-51.9,-37.4,-62.1C-27.6,-72.3,-13.8,-80.2,1.9,-83.2C17.6,-86.2,35.3,-84.3,46.1,-74.5Z" transform="translate(100 100)" />
</svg>
